<svg id="J_Logo" data-name="J Logo" xmlns="http://www.w3.org/2000/svg" viewBox="0 0 609.91 670.89"><defs><style>.cls-1{fill:#e5e5e5;}</style></defs><path class="cls-1" d="M708.63,469.83a22.72,22.72,0,0,0-22.72,22.72v66.07c0,117.72,96.31,216,214,216,118.07,0,214.15-96,214.15-214.07V319.34a33.86,33.86,0,0,0-33.86-33.86H708.63a22.72,22.72,0,0,0-22.72,22.72h0a22.72,22.72,0,0,0,22.72,22.72h359.95a.07.07,0,0,1,.07.07V560.56c0,92-74,167-165.65,168.61-94.58,1.66-171.65-75.77-171.65-170.36V492.55A22.72,22.72,0,0,0,708.63,469.83Z" transform="translate(-595.04 -194.61)"/><path class="cls-1" d="M595,194.61V421.79H977.78V560.56a77.78,77.78,0,0,1-155.56,0v-68a22.72,22.72,0,0,0-22.72-22.72h0a22.72,22.72,0,0,0-22.72,22.72v66.53c0,69.15,56.29,125.88,125.43,124.66a123.35,123.35,0,0,0,121-123.18V411.34a35,35,0,0,0-35-35H640.48V240.05h519V560.56c0,143.09-116.42,259.51-259.52,259.51S640.48,703.65,640.48,560.56v-68a22.72,22.72,0,0,0-45.44,0v68C595,729,731.57,865.5,900,865.5a305,305,0,0,0,305-304.94V194.61Z" transform="translate(-595.04 -194.61)"/></svg>